<svg width="125" height="138" viewBox="0 0 125 138" fill="none" xmlns="http://www.w3.org/2000/svg">
<path d="M88.1559 62.6153C81.7885 49.846 72.3513 44.0229 62.3605 39.9247C69.7392 30.6664 77.8936 25.337 85.5018 24.8567C91.4132 24.4765 97.0575 26.9565 102.267 32.2087L102.562 32.5037C104.769 34.7253 107.039 37.0131 108.681 40.1642C96.7875 44.2339 91.7223 52.7455 88.1559 62.6153ZM68.1623 103.874C67.1106 87.3002 56.3921 79.8346 45.0854 71.9698C30.0189 61.4883 14.4723 50.674 16.9389 16.26C25.6349 31.144 38.6609 35.7062 51.3074 40.1371C65.4302 45.0836 78.7743 49.7608 86.1215 68.77C85.7974 69.8226 85.4763 70.8833 85.1553 71.9468C81.7285 83.2752 78.2236 94.8525 68.1623 103.874ZM45.1334 115.806C42.1883 116.649 39.2056 117.263 36.3069 117.761C36.865 114.009 37.3766 109.789 37.9183 105.135C38.9175 96.5424 39.9512 87.698 41.7291 81.2795C54.0965 86.4885 64.0498 92.0708 63.8263 107.297C58.9727 110.681 52.8963 113.586 45.1334 115.806ZM4.59851 26.7265C7.08159 30.4567 9.99678 33.6199 13.3921 36.3001C17.227 57.5945 30.3925 66.7744 42.3893 75.1222C44.9939 76.9325 47.519 78.6913 49.8656 80.5165C46.5138 78.8523 42.9624 77.3979 39.4381 75.9529C21.1804 68.4832 2.33599 60.7753 4.59851 26.7265ZM26.1315 133.983C25.0888 134.233 22.7362 132.982 19.3079 128.7C17.623 126.593 17.8391 125.837 17.9006 125.707C18.5413 124.326 24.6717 123.479 29.5943 122.798C30.0624 122.733 30.5365 122.668 31.0167 122.601C29.8329 128.719 28.283 133.465 26.1315 133.983ZM125 46.0753L113.284 39.7759C111.335 35.4058 108.439 32.455 105.85 29.8505L105.557 29.5542C99.3906 23.3387 92.5475 20.4257 85.1928 20.8871C75.9176 21.4716 66.6199 27.5018 58.2195 38.3201C56.4506 37.6693 54.6727 37.0443 52.9038 36.4273C38.724 31.4606 25.3288 26.7698 17.6065 7.7755L14.4453 0L13.3425 8.22333C12.2308 16.4994 12.0402 23.6445 12.5564 29.883C9.63219 26.8185 7.16861 23.1939 5.12664 18.8915L1.89189 12.0834L0.907655 19.4354C-4.82818 62.2135 17.7206 71.4394 37.6152 79.5802C37.6272 79.5856 37.6392 79.5883 37.6512 79.5937C35.6692 86.3667 34.5815 95.6805 33.5282 104.721C33.0241 109.038 32.4555 113.933 31.7383 118.469C30.7811 118.608 29.8434 118.735 28.9252 118.864C21.0889 119.947 15.428 120.728 13.8287 124.169C12.5099 127.006 14.9329 130.034 15.7296 131.028C18.1962 134.112 21.815 138 25.83 138C26.3026 138 26.7827 137.946 27.2673 137.83C31.7143 136.761 33.9648 131.176 35.6287 121.919C39.1245 121.361 42.7929 120.65 46.4658 119.6C78.0586 110.562 84.09 90.6028 89.4133 72.9953C93.1431 60.6535 96.4199 49.8284 108.039 44.7535C111.38 43.6034 125 46.0753 125 46.0753Z" fill="url(#paint0_linear)"/>
<defs>
<linearGradient id="paint0_linear" x1="-12.1454" y1="117.34" x2="75.7323" y2="-8.83633" gradientUnits="userSpaceOnUse">
<stop stop-color="#941D80"/>
<stop offset="1" stop-color="#29265B"/>
</linearGradient>
</defs>
</svg>
